# xmcd
#
# Track frame offsets: 
#        150
#        17592
#        38415
#        55437
#        79817
#        89192
#        112752
#        137065
#        164300
#        182767
#        200785
#        218215
#        233055
#        248405
#        272640
#        288902
#        299615
#        323642
#
# Disc length: 4613 seconds
#
# Revision: 6
# Processed by: cddbd v1.5.2PL0 Copyright (c) Steve Scherf et al.
# Submitted via: ExactAudioCopy v0.99pb5
#
DISCID=02120312
DTITLE=Muddy Waters - King Of The Electric Blues 1997 retail cd
DYEAR=1997
DGENRE=
TTITLE0=I`m A King Bee
TTITLE1=Champagne and Reefer
TTITLE2=Mean Old Frisco Blues\\
TTITLE3=Sad Sad Day
TTITLE4=No Escape From The Blues
TTITLE5=She`s Nineteen Years Old
TTITLE6=Nine Below Zero
TTITLE7=Howling Wolf
TTITLE8=Baby Please Don`t Go
TTITLE9=I`m Your Hoochie Coochie Man
TTITLE10=Rock Me
TTITLE11=Good Morning Little School Girl
TTITLE12=I`m Ready
TTITLE13=Mannish Boy
TTITLE14=The Blues Had A Baby And They Named It Rock And Roll
TTITLE15=I Want to Be Loved
TTITLE16=33 Years
TTITLE17=Who Do You Trust
EXTD=
EXTT0=
EXTT1=
EXTT2=
EXTT3=
EXTT4=
EXTT5=
EXTT6=
EXTT7=
EXTT8=
EXTT9=
EXTT10=
EXTT11=
EXTT12=
EXTT13=
EXTT14=
EXTT15=
EXTT16=
EXTT17=
PLAYORDER=
